HIERARCHY
ROOT Hips
{
  OFFSET 0 0 0
  CHANNELS 6 Xposition Yposition Zposition Zrotation Xrotation Yrotation
  JOINT Spine
  {
    OFFSET 0 10.1816 0.131521
    CHANNELS 6 Xposition Yposition Zposition Zrotation Xrotation Yrotation
    JOINT Spine1
    {
      OFFSET 0 10.0835 -1.0008
      CHANNELS 6 Xposition Yposition Zposition Zrotation Xrotation Yrotation
      JOINT Spine2
      {
        OFFSET 0 9.10001 -1.37342
        CHANNELS 6 Xposition Yposition Zposition Zrotation Xrotation Yrotation
        JOINT Neck
        {
          OFFSET 0 16.6717 -2.51617
          CHANNELS 6 Xposition Yposition Zposition Zrotation Xrotation Yrotation
          JOINT Head
          {
            OFFSET 0 9.61788 1.68501
            CHANNELS 6 Xposition Yposition Zposition Zrotation Xrotation Yrotation
            End Site
            {
              OFFSET 0 0 0
            }
          }
        }
        JOINT LeftShoulder
        {
          OFFSET 4.57045 10.946 -2.62799
          CHANNELS 6 Xposition Yposition Zposition Zrotation Xrotation Yrotation
          JOINT LeftArm
          {
            OFFSET 10.5924 -0.524583 -2.23212
            CHANNELS 6 Xposition Yposition Zposition Zrotation Xrotation Yrotation
            JOINT LeftForeArm
            {
              OFFSET 27.8415 -8.94286e-05 3.74589e-05
              CHANNELS 6 Xposition Yposition Zposition Zrotation Xrotation Yrotation
              JOINT LeftHand
              {
                OFFSET 28.3288 -1.74407e-05 3.78045e-05
                CHANNELS 6 Xposition Yposition Zposition Zrotation Xrotation Yrotation
                End Site
                {
                  OFFSET 0 0 0
                }
              }
            }
          }
        }
        JOINT RightShoulder
        {
          OFFSET -4.56997 10.9462 -2.62802
          CHANNELS 6 Xposition Yposition Zposition Zrotation Xrotation Yrotation
          JOINT RightArm
          {
            OFFSET -10.5928 -0.524798 -2.2321
            CHANNELS 6 Xposition Yposition Zposition Zrotation Xrotation Yrotation
            JOINT RightForeArm
            {
              OFFSET -27.8415 -3.30792e-05 1.16763e-05
              CHANNELS 6 Xposition Yposition Zposition Zrotation Xrotation Yrotation
              JOINT RightHand
              {
                OFFSET -28.3288 0 5.5816e-05
                CHANNELS 6 Xposition Yposition Zposition Zrotation Xrotation Yrotation
                End Site
                {
                  OFFSET 0 0 0
                }
              }
            }
          }
        }
      }
    }
  }
  JOINT LeftUpLeg
  {
    OFFSET 8.20778 -6.75171 -1.59956
    CHANNELS 6 Xposition Yposition Zposition Zrotation Xrotation Yrotation
    JOINT LeftLeg
    {
      OFFSET 0 -44.3705 0.284643
      CHANNELS 6 Xposition Yposition Zposition Zrotation Xrotation Yrotation
      JOINT LeftFoot
      {
        OFFSET 0 -44.4279 -2.98219
        CHANNELS 6 Xposition Yposition Zposition Zrotation Xrotation Yrotation
        JOINT LeftToeBase
        {
          OFFSET 0 -8.72867 10.7106
          CHANNELS 6 Xposition Yposition Zposition Zrotation Xrotation Yrotation
          End Site
          {
            OFFSET 0 0 0
          }
        }
      }
    }
  }
  JOINT RightUpLeg
  {
    OFFSET -8.2078 -6.75166 -1.59956
    CHANNELS 6 Xposition Yposition Zposition Zrotation Xrotation Yrotation
    JOINT RightLeg
    {
      OFFSET 0 -44.3705 0.286156
      CHANNELS 6 Xposition Yposition Zposition Zrotation Xrotation Yrotation
      JOINT RightFoot
      {
        OFFSET 0 -44.4277 -2.98379
        CHANNELS 6 Xposition Yposition Zposition Zrotation Xrotation Yrotation
        JOINT RightToeBase
        {
          OFFSET 0 -8.72867 10.7106
          CHANNELS 6 Xposition Yposition Zposition Zrotation Xrotation Yrotation
          End Site
          {
            OFFSET 0 0 0
          }
        }
      }
    }
  }
}
MOTION
Frames:	8
Frame Time:	0.0333333
0.167657 94.5486 1.84334 -3.91139 5.23436 3.45555 9.23415e-06 10.1816 0.131521 2.29133 4.95227 1.04328 2.5194e-07 10.0835 -1.0008 1.74627 9.93676 2.50009 3.45749e-07 9.10001 -1.37342 1.74627 9.93676 2.50008 6.33429e-07 16.6717 -2.51617 -0.437937 -7.47299 -3.20201 -4.24232e-07 9.61788 1.68501 -5.35606 -13.37 -8.63295 4.57045 10.946 -2.62799 -9.10884 1.26456 -1.03947 10.5924 -0.524583 -2.23212 -65.0894 -6.44914 26.2769 27.8415 -8.94286e-05 3.74589e-05 1.50586 11.1412 -104.204 28.3288 -1.74407e-05 3.78045e-05 2.72367 10.8513 -20.7782 -4.56997 10.9462 -2.62802 9.4807 1.76638 5.84323 -10.5928 -0.524798 -2.2321 54.5158 -5.48375 -10.5355 -27.8415 -3.30792e-05 1.16763e-05 3.19693 4.68703 88.9202 -28.3288 -1.58142e-07 5.5816e-05 2.42091 -0.268143 5.81165 8.20778 -6.75171 -1.59956 -0.513754 -39.491 4.2734 -4.11016e-07 -44.3705 0.284643 160.037 78.7856 -147.014 4.71639e-07 -44.4279 -2.98219 4.6886 -14.557 0.356826 -2.96099e-06 -8.72867 10.7106 -6.61942 -0.559376 -2.97219 -8.2078 -6.75166 -1.59956 5.07042 -21.2407 -4.15013 8.43557e-08 -44.3705 0.286156 -2.41384 49.8144 2.12878 9.64458e-07 -44.4277 -2.98379 0.160841 -23.4062 0.0252818 -2.36044e-06 -8.72867 10.7106 -1.66414 -10.6158 12.6769 
1.19879 94.5519 15.4748 -2.34857 6.12498 -0.144453 9.23415e-06 10.1816 0.131521 1.29727 4.80368 1.6105 2.5194e-07 10.0835 -1.0008 -0.345146 9.60492 3.50431 3.45749e-07 9.10001 -1.37342 -0.345147 9.60493 3.50431 6.33429e-07 16.6717 -2.51617 1.31034 -9.02971 -3.24655 -4.24232e-07 9.61788 1.68501 -5.45553 -13.3936 -8.48351 4.57045 10.946 -2.62799 -5.68045 0.289924 0.449319 10.5924 -0.524583 -2.23212 -64.7093 -9.61265 32.8534 27.8415 -8.94286e-05 3.74589e-05 3.7883 14.1144 -94.2209 28.3288 -1.74407e-05 3.78045e-05 5.96084 14.0224 -24.8884 -4.56997 10.9462 -2.62802 5.85553 1.09291 4.60355 -10.5928 -0.524798 -2.2321 50.3136 -6.21534 -7.99253 -27.8415 -3.30792e-05 1.16763e-05 3.00185 4.72391 87.3397 -28.3288 -1.58142e-07 5.5816e-05 1.1736 -1.35252 5.91198 8.20778 -6.75171 -1.59956 -3.00932 -54.154 -0.494736 -4.11016e-07 -44.3705 0.284643 170.771 73.0154 -154.716 4.71639e-07 -44.4279 -2.98219 -1.19398 -7.3866 -0.327764 -2.96099e-06 -8.72867 10.7106 -6.33602 -0.549478 -2.84195 -8.2078 -6.75166 -1.59956 3.37783 -9.43123 -3.064 8.43557e-08 -44.3705 0.286156 -2.99701 42.4499 4.1116 9.64458e-07 -44.4277 -2.98379 -1.24498 -22.9265 -0.216798 -2.36044e-06 -8.72867 10.7106 0.448664 -17.2079 9.24239 
2.01624 94.486 29.2537 0.445212 7.46287 -1.74652 9.23415e-06 10.1816 0.131521 0.00579953 4.72585 2.07873 2.5194e-07 10.0835 -1.0008 -2.27515 9.41155 4.17134 3.45749e-07 9.10001 -1.37342 -2.27515 9.41155 4.17134 6.33429e-07 16.6717 -2.51617 2.97183 -12.2564 -3.68089 -4.24232e-07 9.61788 1.68501 -5.09756 -12.8746 -8.4204 4.57045 10.946 -2.62799 -2.38788 -0.368251 1.05153 10.5924 -0.524583 -2.23212 -61.7388 -11.4684 38.4957 27.8415 -8.94286e-05 3.74589e-05 4.2518 22.1632 -78.862 28.3288 -1.74407e-05 3.78045e-05 10.5936 19.9557 -27.0387 -4.56997 10.9462 -2.62802 2.87474 0.721424 4.46985 -10.5928 -0.524798 -2.2321 43.2275 -7.363 -11.1096 -27.8415 -3.30792e-05 1.16763e-05 0.337114 8.85681 80.2024 -28.3288 -1.58142e-07 5.5816e-05 6.2804 2.43458 6.39026 8.20778 -6.75171 -1.59956 -5.1228 -64.1599 -3.11063 -4.11016e-07 -44.3705 0.284643 173.948 80.556 -156.722 4.71639e-07 -44.4279 -2.98219 -1.40398 -3.71145 -1.04465 -2.96099e-06 -8.72867 10.7106 -5.58962 -0.517278 -2.50001 -8.2078 -6.75166 -1.59956 -0.501563 3.21147 -3.93781 8.43557e-08 -44.3705 0.286156 -2.20742 30.5325 2.45636 9.64458e-07 -44.4277 -2.98379 1.01981 -16.4935 0.0316 -2.36044e-06 -8.72867 10.7106 1.01583 -25.5622 9.63166 
2.67071 93.5549 42.7576 3.07607 8.74501 -0.479014 9.23415e-06 10.1816 0.131521 -0.818747 4.42677 2.18041 2.5194e-07 10.0835 -1.0008 -3.17907 8.79469 4.40256 3.45749e-07 9.10001 -1.37342 -3.17907 8.79469 4.40256 6.33429e-07 16.6717 -2.51617 1.70214 -13.1258 -4.89168 -4.24232e-07 9.61788 1.68501 -4.17042 -11.4298 -8.84949 4.57045 10.946 -2.62799 -0.757042 -0.194079 -1.82229 10.5924 -0.524583 -2.23212 -55.4044 -12.0891 49.7373 27.8415 -8.94286e-05 3.74589e-05 3.32724 31.4867 -70.2614 28.3288 -1.74407e-05 3.78045e-05 16.9812 21.9165 -30.3718 -4.56997 10.9462 -2.62802 0.979006 0.493372 3.65574 -10.5928 -0.524798 -2.2321 36.4876 -7.07762 -21.7761 -27.8415 -3.30792e-05 1.16763e-05 -2.59242 15.9235 73.4781 -28.3288 -1.58142e-07 5.5816e-05 4.8893 7.92776 10.7934 8.20778 -6.75171 -1.59956 -8.89671 -70.2139 -4.75538 -4.11016e-07 -44.3705 0.284643 -14.9013 84.0489 30.1155 4.71639e-07 -44.4279 -2.98219 1.69402 -6.6234 -1.17638 -2.96099e-06 -8.72867 10.7106 -4.53434 -0.456766 -2.01935 -8.2078 -6.75166 -1.59956 -4.61406 14.6224 -6.78942 8.43557e-08 -44.3705 0.286156 0.100936 20.2317 3.31889 9.64458e-07 -44.4277 -2.98379 6.4755 -1.99171 -0.301338 -2.36044e-06 -8.72867 10.7106 -1.67649 -39.0681 7.71475 
3.36367 91.6921 55.8613 3.14566 9.28773 3.17737 9.23415e-06 10.1816 0.131521 -0.598245 4.10515 2.09312 2.5194e-07 10.0835 -1.0008 -2.97535 8.13018 5.09931 3.45749e-07 9.10001 -1.37342 -2.97535 8.13018 5.0993 6.33429e-07 16.6717 -2.51617 0.0556537 -14.1576 -6.3608 -4.24232e-07 9.61788 1.68501 -2.86697 -9.11179 -9.46041 4.57045 10.946 -2.62799 3.14591 -0.326096 -4.74167 10.5924 -0.524583 -2.23212 -50.0969 -9.63035 57.5662 27.8415 -8.94286e-05 3.74589e-05 2.5527 40.1089 -65.9023 28.3288 -1.74407e-05 3.78045e-05 16.104 21.9063 -34.0727 -4.56997 10.9462 -2.62802 -0.933576 0.138569 0.342142 -10.5928 -0.524798 -2.2321 34.5552 -5.6839 -34.7884 -27.8415 -3.30792e-05 1.16763e-05 -3.93352 20.0477 71.1282 -28.3288 -1.58142e-07 5.5816e-05 1.34167 9.70587 16.6102 8.20778 -6.75171 -1.59956 -13.9567 -71.5681 -8.44394 -4.11016e-07 -44.3705 0.284643 -8.91563 64.2365 21.12 4.71639e-07 -44.4279 -2.98219 1.26596 -5.74732 -1.5866 -2.96099e-06 -8.72867 10.7106 -3.3226 -0.365804 -1.47193 -8.2078 -6.75166 -1.59956 -4.549 17.6205 -7.61158 8.43557e-08 -44.3705 0.286156 -0.0271326 23.6003 2.00257 9.64458e-07 -44.4277 -2.98379 23.5465 17.3955 -5.03097 -2.36044e-06 -8.72867 10.7106 -12.785 -56.5343 1.37061 
4.0973 89.7489 68.7866 0.672809 8.39723 6.72304 9.23415e-06 10.1816 0.131521 0.0725934 4.38794 1.67875 2.5194e-07 10.0835 -1.0008 -2.0964 8.7158 5.15211 3.45749e-07 9.10001 -1.37342 -2.0964 8.71581 5.15212 6.33429e-07 16.6717 -2.51617 -0.27712 -16.3303 -7.04203 -4.24232e-07 9.61788 1.68501 -1.17519 -7.34169 -9.29686 4.57045 10.946 -2.62799 9.17175 -0.7481 -7.07185 10.5924 -0.524583 -2.23212 -50.1314 -7.5617 61.0427 27.8415 -8.94286e-05 3.74589e-05 1.51046 47.5599 -59.2619 28.3288 -1.74407e-05 3.78045e-05 24.369 21.7629 -30.6488 -4.56997 10.9462 -2.62802 -2.88051 0.0254109 -1.5054 -10.5928 -0.524798 -2.2321 37.7972 -5.14505 -44.361 -27.8415 -3.30792e-05 1.16763e-05 -5.64153 23.4788 67.8683 -28.3288 -1.58142e-07 5.5816e-05 -3.24317 11.9258 22.2789 8.20778 -6.75171 -1.59956 -13.6756 -67.7819 -8.79908 -4.11016e-07 -44.3705 0.284643 -5.64278 43.5438 16.3579 4.71639e-07 -44.4279 -2.98219 -5.44501 -6.85702 -1.22003 -2.96099e-06 -8.72867 10.7106 -2.10958 -0.251912 -0.929263 -8.2078 -6.75166 -1.59956 -0.99289 13.0792 -7.00012 8.43557e-08 -44.3705 0.286156 -1.8643 41.7352 0.208971 9.64458e-07 -44.4277 -2.98379 31.7616 26.3102 -9.28197 -2.36044e-06 -8.72867 10.7106 0.720016 -3.88987 7.90944 
4.86089 88.3474 81.3755 -1.79704 7.26597 6.94808 9.23415e-06 10.1816 0.131521 0.0657754 5.17867 1.4477 2.5194e-07 10.0835 -1.0008 -1.2034 10.3311 4.14034 3.45749e-07 9.10001 -1.37342 -1.2034 10.3312 4.14035 6.33429e-07 16.6717 -2.51617 1.04817 -19.0619 -6.56288 -4.24232e-07 9.61788 1.68501 0.26043 -6.68779 -8.05085 4.57045 10.946 -2.62799 11.5057 -0.68619 -10.0682 10.5924 -0.524583 -2.23212 -57.4138 -10.9073 58.9847 27.8415 -8.94286e-05 3.74589e-05 -5.05385 43.133 -34.2273 28.3288 -1.74407e-05 3.78045e-05 40.2192 18.5893 -34.0893 -4.56997 10.9462 -2.62802 -1.34453 0.291064 1.14673 -10.5928 -0.524798 -2.2321 42.2642 -6.34224 -47.4446 -27.8415 -3.30792e-05 1.16763e-05 -5.88026 26.3804 60.512 -28.3288 -1.58142e-07 5.5816e-05 -10.5765 13.1012 30.2055 8.20778 -6.75171 -1.59956 -10.7239 -61.7662 -7.42948 -4.11016e-07 -44.3705 0.284643 -0.516653 26.7796 15.175 4.71639e-07 -44.4279 -2.98219 -11.7454 -9.58005 -0.890412 -2.96099e-06 -8.72867 10.7106 -1.04971 -0.133867 -0.45996 -8.2078 -6.75166 -1.59956 -1.37893 -2.55843 -7.7847 8.43557e-08 -44.3705 0.286156 -1.86386 76.637 -1.43227 9.64458e-07 -44.4277 -2.98379 16.8421 18.3794 -3.6086 -2.36044e-06 -8.72867 10.7106 0.804355 0.478519 3.2798 
5.67293 86.3262 93.9828 -2.62716 7.40731 4.26075 9.23415e-06 10.1816 0.131521 -0.45343 5.41959 1.56766 2.5194e-07 10.0835 -1.0008 -1.26131 10.8214 3.21913 3.45749e-07 9.10001 -1.37342 -1.26131 10.8214 3.21913 6.33429e-07 16.6717 -2.51617 3.11998 -21.4882 -5.33418 -4.24232e-07 9.61788 1.68501 1.46342 -6.30029 -6.24206 4.57045 10.946 -2.62799 7.27775 0.2273 -11.9328 10.5924 -0.524583 -2.23212 -59.1274 -12.2244 55.7208 27.8415 -8.94286e-05 3.74589e-05 -8.34987 39.1581 -22.9648 28.3288 -1.74407e-05 3.78045e-05 40.868 21.228 -27.8006 -4.56997 10.9462 -2.62802 4.08829 1.10687 5.78881 -10.5928 -0.524798 -2.2321 45.4768 -8.9628 -46.1413 -27.8415 -3.30792e-05 1.16763e-05 -3.32881 25.7231 53.1029 -28.3288 -1.58142e-07 5.5816e-05 -16.8776 12.2572 34.4986 8.20778 -6.75171 -1.59956 -8.95134 -61.4407 -8.63694 -4.11016e-07 -44.3705 0.284643 2.33763 30.5535 17.0128 4.71639e-07 -44.4279 -2.98219 -13.1166 -4.50065 -0.0617685 -2.96099e-06 -8.72867 10.7106 -0.297208 -0.0395622 -0.129724 -8.2078 -6.75166 -1.59956 -3.82961 -24.826 -8.67238 8.43557e-08 -44.3705 0.286156 -175.564 74.363 163.04 9.64458e-07 -44.4277 -2.98379 9.45577 7.42054 -1.08736 -2.36044e-06 -8.72867 10.7106 -0.0294846 1.0126 0.558099 
